<svg width="48" height="48" viewBox="0 0 48 48" fill="none" xmlns="http://www.w3.org/2000/svg">
<path d="M27.3846 36.3077C27.3846 37.287 26.9956 38.2261 26.3032 38.9186C25.6107 39.611 24.6716 40 23.6923 40C22.713 40 21.7739 39.611 21.0815 38.9186C20.389 38.2261 20 37.287 20 36.3077C20 35.3284 20.389 34.3893 21.0815 33.6968C21.7739 33.0044 22.713 32.6154 23.6923 32.6154C24.6716 32.6154 25.6107 33.0044 26.3032 33.6968C26.9956 34.3893 27.3846 35.3284 27.3846 36.3077ZM27.3846 24C27.3846 24.9793 26.9956 25.9184 26.3032 26.6109C25.6107 27.3033 24.6716 27.6923 23.6923 27.6923C22.713 27.6923 21.7739 27.3033 21.0815 26.6109C20.389 25.9184 20 24.9793 20 24C20 23.0207 20.389 22.0816 21.0815 21.3891C21.7739 20.6967 22.713 20.3077 23.6923 20.3077C24.6716 20.3077 25.6107 20.6967 26.3032 21.3891C26.9956 22.0816 27.3846 23.0207 27.3846 24ZM27.3846 11.6923C27.3846 12.6716 26.9956 13.6107 26.3032 14.3032C25.6107 14.9956 24.6716 15.3846 23.6923 15.3846C22.713 15.3846 21.7739 14.9956 21.0815 14.3032C20.389 13.6107 20 12.6716 20 11.6923C20 10.713 20.389 9.77389 21.0815 9.08145C21.7739 8.38901 22.713 8 23.6923 8C24.6716 8 25.6107 8.38901 26.3032 9.08145C26.9956 9.77389 27.3846 10.713 27.3846 11.6923Z" fill="black"/>
</svg>
