<svg width="48" height="48" viewBox="0 0 48 48" fill="none" xmlns="http://www.w3.org/2000/svg">
<path d="M42 12.0153V11.9869C41.996 11.4187 41.7511 10.8559 41.2804 10.4636C40.4318 9.75648 39.1707 9.87113 38.4636 10.7197L19.8656 33.0372L9.41422 22.5858C8.63316 21.8048 7.36684 21.8048 6.58578 22.5858C6.19576 22.9759 6.0005 23.4869 6 23.9981V24.002C6.0005 24.5132 6.19576 25.0242 6.58578 25.4143L18.5858 37.4143C18.9831 37.8116 19.5293 38.0235 20.0906 37.998C20.652 37.9725 21.1767 37.7121 21.5364 37.2804L41.5364 13.2804C41.8447 12.9105 41.9968 12.4621 42 12.0153Z" fill="black"/>
</svg>
